<?xml version="1.0" encoding="utf-8"?>
<!-- Generator: Adobe Illustrator 27.1.0, SVG Export Plug-In . SVG Version: 6.00 Build 0)  -->
<svg version="1.1" id="Laag_1" xmlns:svgjs="http://svgjs.com/svgjs"
	 xmlns="http://www.w3.org/2000/svg" xmlns:xlink="http://www.w3.org/1999/xlink" x="0px" y="0px" viewBox="0 0 288 288"
	 style="enable-background:new 0 0 288 288;" xml:space="preserve">
<style type="text/css">
	.st0{fill:#FFFFFF;}
</style>
<path class="st0" d="M202.4,0L189,126.9l-23-107L93.5,35l22.8,107L12,163.9l18.6,85.3L214.1,288l42-93L276,7.7L202.4,0z M138,186
	c-6.6,0-12-5.4-12-12s5.4-12,12-12s12,5.4,12,12S144.6,186,138,186z M186,210c-6.6,0-12-5.4-12-12c0-6.6,5.4-12,12-12
	c6.6,0,12,5.4,12,12C198,204.6,192.6,210,186,210z"/>
</svg>
