<?xml version="1.0" encoding="UTF-8"?>
<svg xmlns="http://www.w3.org/2000/svg" xmlns:xlink="http://www.w3.org/1999/xlink" viewBox="0 0 40 40" width="40px" height="40px">
<g id="surface21171172">
<path style=" stroke:none;fill-rule:nonzero;fill:rgb(0%,0%,0%);fill-opacity:1;" d="M 10.847656 2.527344 C 6.261719 2.527344 2.527344 6.261719 2.527344 10.847656 L 2.527344 29.152344 C 2.527344 33.738281 6.261719 37.472656 10.847656 37.472656 L 29.152344 37.472656 C 33.738281 37.472656 37.472656 33.738281 37.472656 29.152344 L 37.472656 10.847656 C 37.472656 6.261719 33.738281 2.527344 29.152344 2.527344 Z M 8.90625 11.679688 L 10.035156 11.679688 L 10.035156 16.226562 C 10.035156 17.417969 10.800781 18.195312 11.847656 18.195312 C 12.878906 18.195312 13.683594 17.402344 13.683594 16.21875 L 13.683594 11.679688 L 14.789062 11.679688 L 14.789062 19.074219 L 13.695312 19.074219 L 13.695312 18.371094 C 13.179688 18.902344 12.464844 19.203125 11.722656 19.199219 C 10.132812 19.199219 8.90625 18.039062 8.90625 16.28125 Z M 15.785156 11.679688 L 16.851562 11.679688 L 16.851562 14.332031 C 17.359375 13.820312 18.050781 13.535156 18.773438 13.53125 C 18.816406 13.53125 18.855469 13.53125 18.894531 13.53125 C 20.460938 13.566406 21.703125 14.859375 21.671875 16.425781 C 21.636719 17.992188 20.339844 19.234375 18.773438 19.203125 C 18.046875 19.195312 17.351562 18.902344 16.839844 18.386719 L 16.839844 19.074219 L 15.785156 19.074219 Z M 24.933594 13.53125 C 26.492188 13.53125 27.644531 14.742188 27.644531 16.363281 L 27.644531 16.710938 L 23.242188 16.710938 C 23.375 17.601562 24.132812 18.257812 25.03125 18.265625 C 25.652344 18.273438 26.238281 17.980469 26.597656 17.476562 L 27.375 18.042969 C 26.828125 18.789062 25.957031 19.21875 25.035156 19.203125 C 23.40625 19.203125 22.15625 17.980469 22.15625 16.363281 L 22.15625 16.34375 C 22.148438 14.804688 23.390625 13.542969 24.933594 13.53125 Z M 30.707031 13.605469 L 31.09375 13.605469 L 31.09375 14.601562 L 30.648438 14.601562 C 29.949219 14.601562 29.449219 15.152344 29.449219 15.992188 L 29.449219 19.074219 L 28.382812 19.074219 L 28.382812 13.644531 L 29.4375 13.644531 L 29.4375 14.308594 C 29.703125 13.863281 30.1875 13.59375 30.707031 13.605469 Z M 24.917969 14.476562 C 24.117188 14.476562 23.457031 15.035156 23.265625 15.863281 L 26.5625 15.863281 C 26.382812 15.035156 25.722656 14.476562 24.917969 14.476562 Z M 18.675781 14.488281 C 17.640625 14.492188 16.800781 15.339844 16.808594 16.375 C 16.8125 17.414062 17.65625 18.25 18.695312 18.246094 L 18.695312 18.242188 L 18.703125 18.242188 C 19.734375 18.242188 20.570312 17.402344 20.566406 16.371094 L 20.566406 16.355469 C 20.5625 15.320312 19.714844 14.480469 18.675781 14.488281 Z M 9.023438 20.925781 L 14.207031 20.925781 L 14.207031 22.195312 L 10.425781 22.195312 L 10.425781 23.996094 L 14.101562 23.996094 L 14.101562 25.222656 L 10.425781 25.222656 L 10.425781 27.050781 L 14.207031 27.050781 L 14.207031 28.320312 L 9.023438 28.320312 Z M 22.40625 21.308594 L 23.785156 21.308594 L 23.785156 22.855469 L 25.328125 22.855469 L 25.328125 24.089844 L 23.785156 24.089844 L 23.785156 26.660156 C 23.785156 26.949219 23.984375 27.089844 24.300781 27.089844 L 25.328125 27.089844 L 25.332031 28.324219 L 23.847656 28.324219 C 22.914062 28.324219 22.398438 27.742188 22.398438 27.011719 L 22.398438 24.089844 L 21.355469 24.089844 L 21.355469 22.855469 L 22.40625 22.855469 Z M 28.277344 22.714844 C 29.9375 22.714844 30.753906 23.464844 30.832031 24.605469 L 29.460938 24.605469 C 29.332031 24 28.847656 23.824219 28.195312 23.824219 C 27.589844 23.824219 27.265625 24.023438 27.265625 24.351562 C 27.265625 24.605469 27.476562 24.730469 28.15625 24.859375 L 29.328125 25.097656 C 30.433594 25.339844 30.960938 25.890625 30.960938 26.636719 C 30.960938 27.675781 30.066406 28.433594 28.484375 28.433594 C 26.773438 28.433594 25.929688 27.679688 25.730469 26.542969 L 27.109375 26.542969 C 27.285156 27.148438 27.738281 27.324219 28.527344 27.324219 C 29.160156 27.324219 29.546875 27.109375 29.546875 26.769531 C 29.546875 26.554688 29.410156 26.417969 28.894531 26.316406 L 27.585938 26.015625 C 26.390625 25.761719 25.835938 25.246094 25.835938 24.453125 C 25.835938 23.304688 26.84375 22.714844 28.277344 22.714844 Z M 17.648438 22.71875 C 18.285156 22.714844 18.902344 22.9375 19.386719 23.347656 L 19.386719 22.855469 L 20.761719 22.855469 L 20.761719 28.320312 L 19.386719 28.320312 L 19.386719 27.804688 C 18.902344 28.214844 18.285156 28.4375 17.648438 28.433594 C 17.609375 28.4375 17.570312 28.4375 17.53125 28.433594 C 15.949219 28.402344 14.699219 27.09375 14.730469 25.515625 C 14.765625 23.9375 16.070312 22.683594 17.648438 22.71875 Z M 17.726562 23.914062 C 16.808594 23.925781 16.070312 24.679688 16.082031 25.597656 C 16.09375 26.515625 16.847656 27.25 17.765625 27.242188 L 17.761719 27.238281 L 17.777344 27.238281 C 18.6875 27.230469 19.414062 26.488281 19.40625 25.578125 L 19.40625 25.558594 C 19.398438 24.640625 18.644531 23.902344 17.726562 23.914062 Z M 17.726562 23.914062 "/>
</g>
</svg>
