<?xml version="1.0" encoding="utf-8"?>
<!-- Generator: Adobe Illustrator 27.1.0, SVG Export Plug-In . SVG Version: 6.00 Build 0)  -->
<svg version="1.1" id="Laag_1" xmlns="http://www.w3.org/2000/svg" xmlns:xlink="http://www.w3.org/1999/xlink" x="0px" y="0px"
	 viewBox="0 0 24 24" style="enable-background:new 0 0 24 24;" xml:space="preserve">
<style type="text/css">
	.st0{fill:none;}
	.st1{fill-rule:evenodd;clip-rule:evenodd;fill:#FFFFFF;}
</style>
<g transform="translate(-40 -40)">
	<rect x="40" y="40" class="st0" width="24" height="24"/>
	<path class="st1" d="M62.9,47c0-3.3-2.6-5.9-5.9-5.9H47c-3.3,0-5.9,2.6-5.9,5.9v10c0,3.3,2.6,5.9,5.9,5.9h10c3.3,0,5.9-2.6,5.9-5.9
		V47z M61.1,47v10c0,2.3-1.8,4.1-4.1,4.1H47c-2.3,0-4.1-1.8-4.1-4.1V47c0-2.3,1.8-4.1,4.1-4.1h10C59.3,42.9,61.1,44.7,61.1,47z
		 M56.9,51.2c-0.3-2.1-2-3.8-4.1-4.1c-0.2,0-0.5-0.1-0.7-0.1c-2.7,0-4.9,2.2-4.9,4.9s2.2,4.9,4.9,4.9c2.7,0,4.9-2.2,4.9-4.9
		C56.9,51.7,56.9,51.5,56.9,51.2z M55.1,51.5c0,0.2,0,0.3,0,0.5c0,1.7-1.4,3.1-3.1,3.1c-1.7,0-3.1-1.4-3.1-3.1
		c0-1.7,1.4-3.1,3.1-3.1c0.2,0,0.3,0,0.5,0C53.8,49.1,54.9,50.2,55.1,51.5z M57.5,45.6c0.5,0,0.9,0.4,0.9,0.9s-0.4,0.9-0.9,0.9
		s-0.9-0.4-0.9-0.9S57,45.6,57.5,45.6z"/>
</g>
</svg>
